<svg width="13" height="10" viewBox="0 0 13 10" fill="none" xmlns="http://www.w3.org/2000/svg">
<path d="M2.71748 9.788C2.11748 9.788 1.57348 9.636 1.08548 9.332C0.597477 9.036 0.233477 8.644 -0.00652273 8.156L0.533477 7.748C0.757477 8.14 1.06148 8.456 1.44548 8.696C1.83748 8.936 2.26548 9.056 2.72948 9.056C3.12948 9.056 3.48548 8.968 3.79748 8.792C4.11748 8.616 4.36948 8.372 4.55348 8.06C4.74548 7.748 4.84148 7.388 4.84148 6.98C4.84148 6.588 4.74948 6.244 4.56548 5.948C4.38948 5.644 4.14548 5.408 3.83348 5.24C3.52948 5.072 3.18548 4.988 2.80148 4.988C2.43348 4.988 2.08148 5.072 1.74548 5.24C1.40948 5.4 1.13748 5.636 0.929477 5.948H0.173477L1.12148 1.148H5.23748V1.904H1.73348L1.14548 4.964C1.35348 4.74 1.60948 4.568 1.91348 4.448C2.21748 4.32 2.54548 4.256 2.89748 4.256C3.41748 4.256 3.88548 4.372 4.30148 4.604C4.72548 4.836 5.06148 5.156 5.30948 5.564C5.55748 5.972 5.68148 6.44 5.68148 6.968C5.68148 7.528 5.54548 8.02 5.27348 8.444C5.00948 8.868 4.65348 9.196 4.20548 9.428C3.75748 9.668 3.26148 9.788 2.71748 9.788ZM12.7965 4.484C12.7965 5.188 12.6645 5.816 12.4005 6.368C12.1445 6.912 11.7885 7.34 11.3325 7.652C10.8765 7.964 10.3605 8.12 9.78454 8.12C9.20854 8.12 8.69254 7.964 8.23654 7.652C7.78854 7.34 7.43254 6.912 7.16854 6.368C6.90454 5.816 6.77254 5.188 6.77254 4.484C6.77254 3.78 6.90454 3.156 7.16854 2.612C7.43254 2.06 7.78854 1.628 8.23654 1.316C8.69254 0.996 9.20854 0.836 9.78454 0.836C10.3605 0.836 10.8765 0.996 11.3325 1.316C11.7885 1.628 12.1445 2.06 12.4005 2.612C12.6645 3.156 12.7965 3.78 12.7965 4.484ZM11.9685 4.484C11.9685 3.916 11.8765 3.416 11.6925 2.984C11.5085 2.552 11.2525 2.216 10.9245 1.976C10.5965 1.728 10.2165 1.604 9.78454 1.604C9.35254 1.604 8.97254 1.728 8.64454 1.976C8.31654 2.216 8.05654 2.552 7.86454 2.984C7.68054 3.416 7.58854 3.916 7.58854 4.484C7.58854 5.052 7.68054 5.552 7.86454 5.984C8.05654 6.416 8.31654 6.752 8.64454 6.992C8.97254 7.232 9.35254 7.352 9.78454 7.352C10.2165 7.352 10.5965 7.232 10.9245 6.992C11.2525 6.744 11.5085 6.408 11.6925 5.984C11.8765 5.552 11.9685 5.052 11.9685 4.484Z" fill="#93B0C8"/>
</svg>
