<svg width="14" height="10" viewBox="0 0 14 10" fill="none" xmlns="http://www.w3.org/2000/svg">
<path d="M6.45282 6.192C6.45282 5.656 6.32082 5.172 6.05682 4.74C5.80082 4.3 5.44882 3.952 5.00082 3.696C4.56082 3.44 4.06882 3.312 3.52482 3.312C3.16482 3.312 2.82482 3.376 2.50482 3.504C2.19282 3.632 1.92082 3.812 1.68882 4.044C1.45682 4.276 1.28082 4.548 1.16082 4.86C1.16082 4.076 1.25682 3.408 1.44882 2.856C1.64882 2.304 1.92482 1.88 2.27682 1.584C2.62882 1.288 3.04082 1.14 3.51282 1.14C3.96082 1.14 4.36482 1.264 4.72482 1.512C5.09282 1.752 5.36082 2.076 5.52882 2.484L6.05682 2.004C5.82482 1.516 5.48482 1.132 5.03682 0.852C4.58882 0.564 4.08082 0.42 3.51282 0.42C2.88882 0.42 2.34082 0.608 1.86882 0.983999C1.39682 1.36 1.02882 1.928 0.764815 2.688C0.500815 3.44 0.368815 4.396 0.368815 5.556C0.368815 6.292 0.500815 6.928 0.764815 7.464C1.02882 8 1.38882 8.412 1.84482 8.7C2.30882 8.98 2.83682 9.12 3.42882 9.12C3.99682 9.12 4.50882 8.988 4.96482 8.724C5.42082 8.46 5.78082 8.108 6.04482 7.668C6.31682 7.22 6.45282 6.728 6.45282 6.192ZM3.45282 8.4C3.04482 8.4 2.67282 8.3 2.33682 8.1C2.00082 7.9 1.72882 7.632 1.52082 7.296C1.32082 6.96 1.22082 6.592 1.22082 6.192C1.22082 5.784 1.32082 5.416 1.52082 5.088C1.72082 4.752 1.98882 4.484 2.32482 4.284C2.66882 4.084 3.04482 3.984 3.45282 3.984C3.85282 3.984 4.22082 4.084 4.55682 4.284C4.89282 4.484 5.16082 4.752 5.36082 5.088C5.56882 5.424 5.67282 5.792 5.67282 6.192C5.67282 6.592 5.56882 6.96 5.36082 7.296C5.16082 7.632 4.89282 7.9 4.55682 8.1C4.22082 8.3 3.85282 8.4 3.45282 8.4ZM13.6593 5.484C13.6593 6.188 13.5273 6.816 13.2633 7.368C13.0073 7.912 12.6513 8.34 12.1953 8.652C11.7393 8.964 11.2233 9.12 10.6473 9.12C10.0713 9.12 9.55528 8.964 9.09928 8.652C8.65128 8.34 8.29528 7.912 8.03128 7.368C7.76728 6.816 7.63528 6.188 7.63528 5.484C7.63528 4.78 7.76728 4.156 8.03128 3.612C8.29528 3.06 8.65128 2.628 9.09928 2.316C9.55528 1.996 10.0713 1.836 10.6473 1.836C11.2233 1.836 11.7393 1.996 12.1953 2.316C12.6513 2.628 13.0073 3.06 13.2633 3.612C13.5273 4.156 13.6593 4.78 13.6593 5.484ZM12.8313 5.484C12.8313 4.916 12.7393 4.416 12.5553 3.984C12.3713 3.552 12.1153 3.216 11.7873 2.976C11.4593 2.728 11.0793 2.604 10.6473 2.604C10.2153 2.604 9.83528 2.728 9.50728 2.976C9.17928 3.216 8.91928 3.552 8.72728 3.984C8.54328 4.416 8.45128 4.916 8.45128 5.484C8.45128 6.052 8.54328 6.552 8.72728 6.984C8.91928 7.416 9.17928 7.752 9.50728 7.992C9.83528 8.232 10.2153 8.352 10.6473 8.352C11.0793 8.352 11.4593 8.232 11.7873 7.992C12.1153 7.744 12.3713 7.408 12.5553 6.984C12.7393 6.552 12.8313 6.052 12.8313 5.484Z" fill="#93B0C8"/>
</svg>
