<svg width="13" height="10" viewBox="0 0 13 10" fill="none" xmlns="http://www.w3.org/2000/svg">
<path d="M4.65951 1.76H0.0635085V1.004H5.95551L1.64751 9.524H0.711509L4.65951 1.76ZM12.7145 4.484C12.7145 5.188 12.5825 5.816 12.3185 6.368C12.0625 6.912 11.7065 7.34 11.2505 7.652C10.7945 7.964 10.2785 8.12 9.70251 8.12C9.12651 8.12 8.61051 7.964 8.15451 7.652C7.70651 7.34 7.35051 6.912 7.08651 6.368C6.82251 5.816 6.69051 5.188 6.69051 4.484C6.69051 3.78 6.82251 3.156 7.08651 2.612C7.35051 2.06 7.70651 1.628 8.15451 1.316C8.61051 0.996 9.12651 0.836 9.70251 0.836C10.2785 0.836 10.7945 0.996 11.2505 1.316C11.7065 1.628 12.0625 2.06 12.3185 2.612C12.5825 3.156 12.7145 3.78 12.7145 4.484ZM11.8865 4.484C11.8865 3.916 11.7945 3.416 11.6105 2.984C11.4265 2.552 11.1705 2.216 10.8425 1.976C10.5145 1.728 10.1345 1.604 9.70251 1.604C9.27051 1.604 8.89051 1.728 8.56251 1.976C8.23451 2.216 7.97451 2.552 7.78251 2.984C7.59851 3.416 7.50651 3.916 7.50651 4.484C7.50651 5.052 7.59851 5.552 7.78251 5.984C7.97451 6.416 8.23451 6.752 8.56251 6.992C8.89051 7.232 9.27051 7.352 9.70251 7.352C10.1345 7.352 10.5145 7.232 10.8425 6.992C11.1705 6.744 11.4265 6.408 11.6105 5.984C11.7945 5.552 11.8865 5.052 11.8865 4.484Z" fill="#93B0C8"/>
</svg>
