<svg width="14" height="10" viewBox="0 0 14 10" fill="none" xmlns="http://www.w3.org/2000/svg">
<path d="M6.31941 6.636C6.31941 7.132 6.17941 7.564 5.89941 7.932C5.62741 8.3 5.26341 8.588 4.80741 8.796C4.35941 8.996 3.86741 9.096 3.33141 9.096C2.76341 9.096 2.25941 8.984 1.81941 8.76C1.37941 8.528 1.03141 8.224 0.775409 7.848C0.527409 7.472 0.403409 7.052 0.403409 6.588C0.403409 6.228 0.487409 5.904 0.655409 5.616C0.831409 5.32 1.04741 5.072 1.30341 4.872C1.56741 4.672 1.83541 4.528 2.10741 4.44C1.85941 4.336 1.62741 4.2 1.41141 4.032C1.19541 3.856 1.02341 3.652 0.895409 3.42C0.767409 3.188 0.703409 2.932 0.703409 2.652C0.703409 2.3 0.779409 1.992 0.931409 1.728C1.09141 1.456 1.29941 1.228 1.55541 1.044C1.81141 0.852 2.09541 0.712 2.40741 0.624C2.72741 0.528 3.04741 0.48 3.36741 0.48C3.67941 0.48 3.99141 0.528 4.30341 0.624C4.62341 0.712 4.91141 0.848 5.16741 1.032C5.43141 1.216 5.63941 1.444 5.79141 1.716C5.95141 1.98 6.03141 2.288 6.03141 2.64C6.03141 2.92 5.96341 3.18 5.82741 3.42C5.69941 3.652 5.52741 3.856 5.31141 4.032C5.09541 4.2 4.85941 4.336 4.60341 4.44C4.91541 4.544 5.19941 4.704 5.45541 4.92C5.71941 5.128 5.92741 5.376 6.07941 5.664C6.23941 5.952 6.31941 6.276 6.31941 6.636ZM5.49141 6.576C5.49141 6.288 5.42741 6.036 5.29941 5.82C5.17941 5.596 5.01141 5.408 4.79541 5.256C4.58741 5.104 4.35541 4.988 4.09941 4.908C3.85141 4.828 3.59941 4.788 3.34341 4.788C2.99941 4.788 2.66341 4.864 2.33541 5.016C2.01541 5.16 1.75141 5.368 1.54341 5.64C1.34341 5.904 1.24341 6.22 1.24341 6.588C1.24341 6.868 1.30341 7.116 1.42341 7.332C1.55141 7.548 1.71941 7.736 1.92741 7.896C2.13541 8.048 2.36341 8.164 2.61141 8.244C2.86741 8.324 3.12341 8.364 3.37941 8.364C3.72341 8.364 4.05541 8.292 4.37541 8.148C4.70341 7.996 4.97141 7.784 5.17941 7.512C5.38741 7.24 5.49141 6.928 5.49141 6.576ZM1.51941 2.688C1.51941 2.992 1.61141 3.256 1.79541 3.48C1.98741 3.696 2.22741 3.86 2.51541 3.972C2.80341 4.084 3.08341 4.14 3.35541 4.14C3.64341 4.14 3.92741 4.084 4.20741 3.972C4.49541 3.852 4.73141 3.684 4.91541 3.468C5.10741 3.244 5.20341 2.976 5.20341 2.664C5.20341 2.36 5.11541 2.1 4.93941 1.884C4.76341 1.668 4.53141 1.504 4.24341 1.392C3.96341 1.28 3.66341 1.224 3.34341 1.224C3.03941 1.224 2.74341 1.284 2.45541 1.404C2.17541 1.516 1.94741 1.684 1.77141 1.908C1.60341 2.124 1.51941 2.384 1.51941 2.688ZM13.6007 5.484C13.6007 6.188 13.4687 6.816 13.2047 7.368C12.9487 7.912 12.5927 8.34 12.1367 8.652C11.6807 8.964 11.1647 9.12 10.5887 9.12C10.0127 9.12 9.49669 8.964 9.04069 8.652C8.59269 8.34 8.23669 7.912 7.97269 7.368C7.70869 6.816 7.57669 6.188 7.57669 5.484C7.57669 4.78 7.70869 4.156 7.97269 3.612C8.23669 3.06 8.59269 2.628 9.04069 2.316C9.49669 1.996 10.0127 1.836 10.5887 1.836C11.1647 1.836 11.6807 1.996 12.1367 2.316C12.5927 2.628 12.9487 3.06 13.2047 3.612C13.4687 4.156 13.6007 4.78 13.6007 5.484ZM12.7727 5.484C12.7727 4.916 12.6807 4.416 12.4967 3.984C12.3127 3.552 12.0567 3.216 11.7287 2.976C11.4007 2.728 11.0207 2.604 10.5887 2.604C10.1567 2.604 9.77669 2.728 9.44869 2.976C9.12069 3.216 8.86069 3.552 8.66869 3.984C8.48469 4.416 8.39269 4.916 8.39269 5.484C8.39269 6.052 8.48469 6.552 8.66869 6.984C8.86069 7.416 9.12069 7.752 9.44869 7.992C9.77669 8.232 10.1567 8.352 10.5887 8.352C11.0207 8.352 11.4007 8.232 11.7287 7.992C12.0567 7.744 12.3127 7.408 12.4967 6.984C12.6807 6.552 12.7727 6.052 12.7727 5.484Z" fill="#93B0C8"/>
</svg>
