<svg width="11" height="11" viewBox="0 0 11 11" fill="none" xmlns="http://www.w3.org/2000/svg">
<path fill-rule="evenodd" clip-rule="evenodd" d="M6.0761 5.55859C6.14307 5.62556 6.17655 5.70257 6.17655 5.78962C6.17655 5.87667 6.14307 5.95368 6.0761 6.02065L1.3953 10.7015C1.32833 10.7684 1.25133 10.8019 1.16427 10.8019C1.07722 10.8019 1.00021 10.7684 0.933245 10.7015L0.431013 10.1992C0.364049 10.1323 0.330566 10.0552 0.330566 9.96819C0.330566 9.88114 0.364049 9.80413 0.431013 9.73717L4.37856 5.78962L0.431013 1.84208C0.364049 1.77511 0.330566 1.6981 0.330566 1.61105C0.330566 1.524 0.364049 1.44699 0.431013 1.38002L0.933245 0.87779C1.00021 0.810826 1.07722 0.777344 1.16427 0.777344C1.25133 0.777344 1.32833 0.810826 1.3953 0.87779L6.0761 5.55859ZM9.93325 5.55859C10.0002 5.62556 10.0337 5.70257 10.0337 5.78962C10.0337 5.87667 10.0002 5.95368 9.93325 6.02065L5.25244 10.7015C5.18548 10.7684 5.10847 10.8019 5.02141 10.8019C4.93436 10.8019 4.85735 10.7684 4.79039 10.7015L4.28815 10.1992C4.22119 10.1323 4.18771 10.0552 4.18771 9.96819C4.18771 9.88114 4.22119 9.80413 4.28815 9.73717L8.2357 5.78962L4.28815 1.84208C4.22119 1.77511 4.18771 1.6981 4.18771 1.61105C4.18771 1.524 4.22119 1.44699 4.28815 1.38002L4.79039 0.87779C4.85735 0.810826 4.93436 0.777344 5.02141 0.777344C5.10847 0.777344 5.18548 0.810826 5.25244 0.87779L9.93325 5.55859Z" fill="#AE79D7"/>
</svg>
