<svg width="79" height="76" viewBox="0 0 79 76" fill="none" xmlns="http://www.w3.org/2000/svg">
<g clip-path="url(#clip0_0_738)">
<path fill-rule="evenodd" clip-rule="evenodd" d="M39.5912 74C59.8629 74 76.2963 57.8823 76.2963 38C76.2963 18.1177 59.8629 2 39.5912 2C19.3196 2 2.88623 18.1177 2.88623 38C2.88623 57.8823 19.3196 74 39.5912 74Z" stroke="white" stroke-opacity="0.297394" stroke-width="4"/>
<path d="M4.32698 27.9792C3.38894 31.1602 2.88623 34.5225 2.88623 38C2.88623 57.8823 19.3196 74 39.5912 74C59.8629 74 76.2963 57.8823 76.2963 38C76.2963 18.1177 59.8629 2 39.5912 2" stroke="white" stroke-width="4" stroke-linecap="round"/>
<path fill-rule="evenodd" clip-rule="evenodd" d="M39.5912 63C53.6687 63 65.0808 51.8071 65.0808 38C65.0808 24.1929 53.6687 13 39.5912 13C25.5136 13 14.1016 24.1929 14.1016 38C14.1016 51.8071 25.5136 63 39.5912 63Z" fill="#D96A6A"/>
<path d="M33.3691 34.48V43H31.7251V39.364H27.8611V43H26.2051V34.48H27.8611V37.924H31.7251V34.48H33.3691ZM34.9905 43V36.712H36.5985V43H34.9905ZM34.9905 35.836V34.24H36.5985V35.836H34.9905ZM40.5091 43.036C40.0931 43.036 39.7091 42.956 39.3571 42.796C39.0131 42.628 38.7131 42.396 38.4571 42.1C38.2091 41.804 38.0171 41.464 37.8811 41.08C37.7451 40.696 37.6771 40.288 37.6771 39.856C37.6771 39.4 37.7491 38.976 37.8931 38.584C38.0371 38.192 38.2371 37.848 38.4931 37.552C38.7571 37.248 39.0651 37.016 39.4171 36.856C39.7771 36.688 40.1731 36.604 40.6051 36.604C41.0931 36.604 41.5211 36.716 41.8891 36.94C42.2571 37.156 42.5611 37.448 42.8011 37.816V36.712H44.2051V42.7C44.2051 43.324 44.0531 43.856 43.7491 44.296C43.4531 44.744 43.0411 45.084 42.5131 45.316C41.9851 45.556 41.3851 45.676 40.7131 45.676C40.0331 45.676 39.4571 45.56 38.9851 45.328C38.5131 45.104 38.1091 44.784 37.7731 44.368L38.6491 43.516C38.8891 43.812 39.1891 44.044 39.5491 44.212C39.9171 44.38 40.3051 44.464 40.7131 44.464C41.0571 44.464 41.3691 44.4 41.6491 44.272C41.9371 44.152 42.1651 43.96 42.3331 43.696C42.5091 43.44 42.5971 43.108 42.5971 42.7V41.908C42.3891 42.268 42.0931 42.548 41.7091 42.748C41.3331 42.94 40.9331 43.036 40.5091 43.036ZM41.0491 41.752C41.2251 41.752 41.3931 41.724 41.5531 41.668C41.7131 41.612 41.8611 41.536 41.9971 41.44C42.1331 41.344 42.2531 41.232 42.3571 41.104C42.4611 40.968 42.5411 40.832 42.5971 40.696V39.196C42.5011 38.948 42.3651 38.732 42.1891 38.548C42.0211 38.364 41.8291 38.224 41.6131 38.128C41.4051 38.024 41.1851 37.972 40.9531 37.972C40.7051 37.972 40.4811 38.024 40.2811 38.128C40.0811 38.232 39.9091 38.38 39.7651 38.572C39.6211 38.756 39.5091 38.964 39.4291 39.196C39.3571 39.42 39.3211 39.656 39.3211 39.904C39.3211 40.16 39.3651 40.4 39.4531 40.624C39.5411 40.848 39.6611 41.044 39.8131 41.212C39.9731 41.38 40.1571 41.512 40.3651 41.608C40.5811 41.704 40.8091 41.752 41.0491 41.752ZM51.4986 43H49.8906V39.472C49.8906 38.984 49.7946 38.62 49.6026 38.38C49.4186 38.14 49.1626 38.02 48.8346 38.02C48.6426 38.02 48.4386 38.076 48.2226 38.188C48.0066 38.3 47.8106 38.456 47.6346 38.656C47.4666 38.848 47.3426 39.072 47.2626 39.328V43H45.6546V34.24H47.2626V37.876C47.4946 37.476 47.8106 37.164 48.2106 36.94C48.6106 36.716 49.0466 36.604 49.5186 36.604C49.9266 36.604 50.2586 36.676 50.5146 36.82C50.7706 36.956 50.9706 37.144 51.1146 37.384C51.2586 37.616 51.3586 37.88 51.4146 38.176C51.4706 38.464 51.4986 38.764 51.4986 39.076V43Z" fill="#F7FBFF"/>
</g>
<defs>
<clipPath id="clip0_0_738">
<rect width="79" height="76" fill="white"/>
</clipPath>
</defs>
</svg>
