<svg width="15" height="22" viewBox="0 0 15 22" fill="none" xmlns="http://www.w3.org/2000/svg">
<path fill-rule="evenodd" clip-rule="evenodd" d="M13.8259 11.7848L3.88839 21.7223C3.71875 21.8919 3.51785 21.9767 3.28571 21.9767C3.05357 21.9767 2.85268 21.8919 2.68303 21.7223L0.459817 19.4991C0.290174 19.3294 0.205353 19.1285 0.205353 18.8964C0.205353 18.6642 0.290174 18.4633 0.459817 18.2937L7.57142 11.1821L0.459817 4.07049C0.290174 3.90085 0.205353 3.69995 0.205353 3.46781C0.205353 3.23567 0.290174 3.03477 0.459817 2.86513L2.68303 0.641915C2.85268 0.472273 3.05357 0.387451 3.28571 0.387451C3.51785 0.387451 3.71875 0.472273 3.88839 0.641915L13.8259 10.5794C13.9956 10.7491 14.0804 10.95 14.0804 11.1821C14.0804 11.4143 13.9956 11.6151 13.8259 11.7848V11.7848Z" fill="#7030A0"/>
</svg>
