<svg width="38" height="34" viewBox="0 0 38 34" fill="none" xmlns="http://www.w3.org/2000/svg">
<g clip-path="url(#clip0_7565_4554)">
<path fill-rule="evenodd" clip-rule="evenodd" d="M19.34 34C29.5334 34 37.7968 26.3888 37.7968 17C37.7968 7.61116 29.5334 0 19.34 0C9.14666 0 0.883301 7.61116 0.883301 17C0.883301 26.3888 9.14666 34 19.34 34Z" fill="#224CA4" stroke="white"/>
<path d="M11.7895 18.308V19.172H10.3735V20.708H9.41346V19.172H7.99746V18.308H9.41346V16.772H10.3735V18.308H11.7895ZM17.5016 22.04V23H13.1936V22.04H14.8976V17.36C14.8256 17.456 14.7136 17.56 14.5616 17.672C14.4096 17.776 14.2376 17.876 14.0456 17.972C13.8536 18.068 13.6616 18.148 13.4696 18.212C13.2776 18.268 13.1016 18.296 12.9416 18.296V17.288C13.1176 17.288 13.3096 17.24 13.5176 17.144C13.7336 17.04 13.9416 16.92 14.1416 16.784C14.3416 16.648 14.5096 16.52 14.6456 16.4C14.7896 16.28 14.8736 16.196 14.8976 16.148H15.9776V22.04H17.5016ZM18.308 23C18.308 22.68 18.332 22.38 18.38 22.1C18.436 21.82 18.532 21.552 18.668 21.296C18.812 21.04 19.012 20.796 19.268 20.564C19.524 20.324 19.856 20.092 20.264 19.868C20.504 19.732 20.744 19.604 20.984 19.484C21.232 19.364 21.46 19.236 21.668 19.1C21.884 18.964 22.056 18.816 22.184 18.656C22.312 18.488 22.376 18.296 22.376 18.08C22.376 17.896 22.32 17.72 22.208 17.552C22.104 17.376 21.944 17.236 21.728 17.132C21.52 17.02 21.26 16.964 20.948 16.964C20.708 16.964 20.488 16.996 20.288 17.06C20.096 17.124 19.92 17.208 19.76 17.312C19.608 17.408 19.472 17.512 19.352 17.624C19.24 17.728 19.144 17.824 19.064 17.912L18.404 17.168C18.468 17.096 18.576 17 18.728 16.88C18.88 16.752 19.072 16.624 19.304 16.496C19.536 16.368 19.804 16.26 20.108 16.172C20.42 16.076 20.76 16.028 21.128 16.028C21.624 16.028 22.048 16.116 22.4 16.292C22.76 16.46 23.036 16.692 23.228 16.988C23.42 17.276 23.516 17.6 23.516 17.96C23.516 18.272 23.448 18.544 23.312 18.776C23.184 19.008 23.016 19.212 22.808 19.388C22.608 19.564 22.396 19.716 22.172 19.844C21.956 19.964 21.76 20.068 21.584 20.156C21.224 20.332 20.916 20.492 20.66 20.636C20.404 20.78 20.192 20.924 20.024 21.068C19.864 21.204 19.732 21.348 19.628 21.5C19.532 21.652 19.46 21.832 19.412 22.04H23.648V23H18.308Z" fill="white"/>
</g>
<defs>
<clipPath id="clip0_7565_4554">
<rect width="36.9135" height="34" fill="white" transform="translate(0.883301)"/>
</clipPath>
</defs>
</svg>
