<svg width="23" height="13" viewBox="0 0 23 13" fill="none" xmlns="http://www.w3.org/2000/svg">
<path d="M19.7776 3.17375C18.231 2.89096 16.6646 3.04071 15.2982 3.63204C15.4643 4.21524 15.5519 4.82035 15.5519 5.43855C15.5519 7.59607 14.5019 9.59773 12.6475 11.0381C14.6291 11.1508 16.5615 10.5541 17.9792 9.2124C19.6458 7.63469 20.2288 5.38209 19.7776 3.17375Z" fill="#A66DD4"/>
<path d="M20.3176 6.94629C19.9606 7.9923 19.359 8.94321 18.524 9.73308C17.1257 11.0567 15.2059 11.7901 13.1183 11.7901C13.1181 11.7901 13.1181 11.7901 13.1181 11.7901C13.0255 11.7901 12.9319 11.7871 12.8384 11.7833C14.3628 12.6823 16.1585 13.0434 17.9423 12.6633C20.242 12.1736 22.0069 10.5652 22.8731 8.47069C22.1171 7.79737 21.248 7.27764 20.3176 6.94629Z" fill="#A66DD4"/>
<path d="M9.9472 11.7901C7.85964 11.7901 5.93985 11.0567 4.54122 9.73287C3.70648 8.94278 3.10441 7.99231 2.74742 6.94653C1.81699 7.27789 0.948132 7.79761 0.192383 8.47093C1.05862 10.5652 2.82354 12.1739 5.12324 12.6635C6.90702 13.0437 8.70273 12.6825 10.2266 11.7836C10.1331 11.7874 10.0398 11.7901 9.9472 11.7901Z" fill="#A66DD4"/>
<path d="M7.53101 5.43834C7.53101 4.8224 7.6174 4.21955 7.78253 3.63838C6.4123 3.04163 4.84019 2.88962 3.28741 3.17354C2.8364 5.38188 3.41938 7.63448 5.08622 9.21196C6.50776 10.5575 8.44712 11.1542 10.4342 11.0368C8.58076 9.59685 7.53101 7.59563 7.53101 5.43834Z" fill="#A66DD4"/>
<path d="M8.44409 5.49989C8.44409 7.74169 9.66085 9.73408 11.5463 11C13.4318 9.73408 14.6485 7.74192 14.6485 5.49989C14.6485 3.25786 13.4318 1.2657 11.5463 0C9.66085 1.26592 8.44409 3.25786 8.44409 5.49989Z" fill="#A66DD4"/>
</svg>
