<svg width="16" height="17" viewBox="0 0 16 17" fill="none" xmlns="http://www.w3.org/2000/svg">
<path fill-rule="evenodd" clip-rule="evenodd" d="M14.8241 7.64405C15.0179 8.04822 15.2118 8.4524 15.4996 9.03777C15.4996 9.03777 15.9397 9.99706 15.9111 10.0819C15.8751 10.1883 15.7672 10.2593 15.6593 10.2947L14.1486 10.614V11.4554C14.1147 12.1577 13.9769 12.4839 13.7994 12.9038C13.7886 12.9294 13.7776 12.9553 13.7666 12.9816C13.5734 13.4411 12.852 13.9737 12.7081 14.0446C11.9168 14.5413 11.3071 14.6585 10.7675 14.5166V16.6452C10.7675 16.8226 10.6236 17 10.4078 17H3.39392C3.21407 17 3.03423 16.8226 3.03423 16.6452V14.694C3.03423 13.3458 2.6026 12.0686 1.81129 11.1107L1.81128 11.1107C1.66741 10.9333 1.52354 10.7559 1.41563 10.5786C-0.274902 7.95321 0.120755 3.37661 3.1781 1.17699C4.47298 0.254577 6.12755 -0.135676 8.10583 0.0417116C9.50861 0.148144 10.8754 0.680308 12.1703 1.56725C13.2134 2.2768 13.8608 3.34113 13.9687 4.54737L14.1486 6.25029C14.4363 6.83568 14.6302 7.23986 14.8241 7.64405ZM4.61685 4.76023C4.61685 6.74698 7.06273 7.95321 7.45839 7.95321C7.85404 7.95321 10.2999 6.74698 10.2999 4.76023C10.2999 3.97972 9.65248 3.34113 8.86117 3.34113C8.42954 3.34113 8.03389 3.55399 7.74614 3.87329C7.6742 3.97972 7.56629 4.0152 7.45839 4.0152C7.35048 4.0152 7.24257 3.94425 7.17063 3.87329C6.91885 3.51852 6.48723 3.34113 6.0556 3.34113C5.26429 3.34113 4.61685 3.97972 4.61685 4.76023Z" fill="#5FC5FF"/>
</svg>
