<svg width="40" height="40" viewBox="0 0 40 40" fill="none" xmlns="http://www.w3.org/2000/svg">
<path fill-rule="evenodd" clip-rule="evenodd" d="M28.3142 17.8142V20.3856C28.3142 20.5597 28.2506 20.7104 28.1234 20.8376C27.9962 20.9649 27.8455 21.0285 27.6714 21.0285H27.0285C26.8544 21.0285 26.7037 20.9649 26.5765 20.8376C26.4493 20.7104 26.3857 20.5597 26.3857 20.3856V17.8142C26.3857 17.1044 26.1346 16.4984 25.6323 15.9961C25.1301 15.4939 24.5241 15.2428 23.8142 15.2428C23.1044 15.2428 22.4984 15.4939 21.9962 15.9961C21.4939 16.4984 21.2428 17.1044 21.2428 17.8142V19.7428H22.2071C22.475 19.7428 22.7026 19.8365 22.8901 20.024C23.0776 20.2115 23.1714 20.4392 23.1714 20.7071V26.4928C23.1714 26.7606 23.0776 26.9883 22.8901 27.1758C22.7026 27.3633 22.475 27.4571 22.2071 27.4571H12.5643C12.2964 27.4571 12.0687 27.3633 11.8812 27.1758C11.6937 26.9883 11.6 26.7606 11.6 26.4928V20.7071C11.6 20.4392 11.6937 20.2115 11.8812 20.024C12.0687 19.8365 12.2964 19.7428 12.5643 19.7428H19.3143V17.8142C19.3143 16.5754 19.7545 15.5157 20.6351 14.6351C21.5157 13.7545 22.5754 13.3142 23.8143 13.3142C25.0531 13.3142 26.1128 13.7545 26.9934 14.6351C27.874 15.5157 28.3143 16.5754 28.3143 17.8142H28.3142Z" fill="#15181A"/>
</svg>
