<svg width="18" height="18" viewBox="0 0 18 18" fill="none" xmlns="http://www.w3.org/2000/svg">
<path fill-rule="evenodd" clip-rule="evenodd" d="M10.845 11.1986C11.7289 10.3146 12.1709 9.25324 12.1709 8.0144C12.1709 6.77556 11.7306 5.71585 10.85 4.83527C9.96945 3.95469 8.90974 3.5144 7.6709 3.5144C6.43206 3.5144 5.37235 3.95469 4.49177 4.83527C3.61119 5.71585 3.1709 6.77556 3.1709 8.0144C3.1709 9.25324 3.61119 10.313 4.49177 11.1935C5.37235 12.0741 6.43206 12.5144 7.6709 12.5144C8.90974 12.5144 9.96777 12.0758 10.845 11.1986ZM17.3139 16.3714C17.3139 16.7197 17.1867 17.021 16.9322 17.2755C16.6777 17.5299 16.3764 17.6572 16.0282 17.6572C15.6666 17.6572 15.3652 17.5299 15.1242 17.2755L11.6788 13.8402C10.4802 14.6705 9.14425 15.0857 7.67103 15.0857C6.71345 15.0857 5.79771 14.8999 4.92383 14.5282C4.04994 14.1566 3.29659 13.6544 2.66378 13.0215C2.03097 12.3887 1.52874 11.6354 1.15709 10.7615C0.785435 9.88762 0.599609 8.97188 0.599609 8.0143C0.599609 7.05671 0.785435 6.14097 1.15709 5.26709C1.52874 4.3932 2.03097 3.63986 2.66378 3.00704C3.29659 2.37423 4.04994 1.872 4.92383 1.50035C5.79771 1.1287 6.71345 0.942871 7.67103 0.942871C8.62862 0.942871 9.54436 1.1287 10.4182 1.50035C11.2921 1.872 12.0455 2.37423 12.6783 3.00704C13.3111 3.63986 13.8133 4.3932 14.185 5.26709C14.5566 6.14097 14.7425 7.05671 14.7425 8.0143C14.7425 9.48751 14.3273 10.8235 13.4969 12.0221L16.9422 15.4674C17.19 15.7152 17.3139 16.0165 17.3139 16.3714L17.3139 16.3714Z" fill="#101213"/>
</svg>
