<svg width="22" height="17" viewBox="0 0 22 17" fill="none" xmlns="http://www.w3.org/2000/svg">
<path fill-rule="evenodd" clip-rule="evenodd" d="M18.6056 12.732H18.8925C20.5162 12.732 21.8355 13.834 21.8355 15.2148V16.0744C21.8158 16.3388 21.6858 16.5848 21.4743 16.758C21.2629 16.9311 20.9873 17.0172 20.7087 16.9971H15.0047C14.6803 17.007 14.3616 16.9148 14.0983 16.7349L14.0528 16.6918L3.32365 6.07053C3.25934 6.00184 3.22331 5.91345 3.22217 5.82159C3.22733 5.729 3.26847 5.64149 3.33765 5.57598L4.24049 4.75615L8.85971 0.328418C9.12523 0.0709554 9.50752 -0.0457712 9.88154 0.0164188C10.2639 0.0791997 10.5902 0.314423 10.7564 0.647055C11.3443 1.84858 12.7825 3.91309 15.6556 4.20849C16.2672 4.26506 16.7328 4.75412 16.7299 5.337V7.48448V8.14831V9.1009V9.76473V10.787C16.728 10.982 16.7599 11.176 16.8244 11.3612C17.0358 12.1399 17.7587 12.6962 18.6056 12.732ZM20.5658 16.3632C20.6228 16.3632 21.0552 16.3632 21.0552 15.9344C21.0552 15.5056 20.5731 15.5183 20.5731 15.5183H15.2729H15.2204C15.1421 15.5101 15.0698 15.4746 15.0175 15.4188L5.06861 5.52817C4.96052 5.42071 4.60145 5.33281 4.41914 5.50178C4.23683 5.67075 4.26544 6.03971 4.36715 6.14048L14.5952 16.2736C14.7425 16.34 14.9048 16.3708 15.0677 16.3632H20.5658Z" fill="#A66DD4"/>
<path d="M5.97166 13C6.16641 13 6.32429 12.7761 6.32429 12.5C6.32429 12.2239 6.16641 12 5.97166 12H2.54061C2.34586 12 2.18799 12.2239 2.18799 12.5C2.18799 12.7761 2.34586 13 2.54061 13H5.97166Z" fill="#A66DD4"/>
<path d="M8.04619 15H0.466152C0.274907 15 0.119873 15.2239 0.119873 15.5C0.119873 15.7761 0.274907 16 0.466152 16H8.04619C8.23744 16 8.39247 15.7761 8.39247 15.5C8.39247 15.2239 8.23744 15 8.04619 15Z" fill="#A66DD4"/>
</svg>
