<svg width="192" height="70" viewBox="0 0 192 70" fill="none" xmlns="http://www.w3.org/2000/svg">
<g clip-path="url(#clip0_0_696)">
<path d="M8.47689 65.484C8.47689 66.188 8.34489 66.816 8.08089 67.368C7.82489 67.912 7.46889 68.34 7.01289 68.652C6.55689 68.964 6.04089 69.12 5.46489 69.12C4.88889 69.12 4.37289 68.964 3.91689 68.652C3.46889 68.34 3.11289 67.912 2.84889 67.368C2.58489 66.816 2.45289 66.188 2.45289 65.484C2.45289 64.78 2.58489 64.156 2.84889 63.612C3.11289 63.06 3.46889 62.628 3.91689 62.316C4.37289 61.996 4.88889 61.836 5.46489 61.836C6.04089 61.836 6.55689 61.996 7.01289 62.316C7.46889 62.628 7.82489 63.06 8.08089 63.612C8.34489 64.156 8.47689 64.78 8.47689 65.484ZM7.64889 65.484C7.64889 64.916 7.55689 64.416 7.37289 63.984C7.18889 63.552 6.93289 63.216 6.60489 62.976C6.27689 62.728 5.89689 62.604 5.46489 62.604C5.03289 62.604 4.65289 62.728 4.32489 62.976C3.99689 63.216 3.73689 63.552 3.54489 63.984C3.36089 64.416 3.26889 64.916 3.26889 65.484C3.26889 66.052 3.36089 66.552 3.54489 66.984C3.73689 67.416 3.99689 67.752 4.32489 67.992C4.65289 68.232 5.03289 68.352 5.46489 68.352C5.89689 68.352 6.27689 68.232 6.60489 67.992C6.93289 67.744 7.18889 67.408 7.37289 66.984C7.55689 66.552 7.64889 66.052 7.64889 65.484Z" fill="#F7FBFF"/>
<path d="M81.6978 66.168C82.0578 66.224 82.3658 66.352 82.6218 66.552C82.8778 66.752 83.0778 67.004 83.2218 67.308C83.3658 67.612 83.4378 67.956 83.4378 68.34C83.4378 68.82 83.3218 69.244 83.0898 69.612C82.8578 69.98 82.5338 70.264 82.1178 70.464C81.7018 70.664 81.2178 70.764 80.6658 70.764C80.0578 70.764 79.5258 70.64 79.0698 70.392C78.6138 70.152 78.2698 69.816 78.0378 69.384L78.6018 68.868C78.7778 69.212 79.0378 69.488 79.3818 69.696C79.7258 69.912 80.1538 70.02 80.6658 70.02C81.2578 70.02 81.7258 69.872 82.0698 69.576C82.4218 69.288 82.5978 68.872 82.5978 68.328C82.5978 67.784 82.4138 67.352 82.0458 67.032C81.6858 66.704 81.1698 66.54 80.4978 66.54H80.1978V65.844H80.5218C81.1378 65.844 81.6098 65.7 81.9378 65.412C82.2658 65.124 82.4298 64.756 82.4298 64.308C82.4298 63.98 82.3538 63.708 82.2018 63.492C82.0498 63.276 81.8418 63.112 81.5778 63C81.3218 62.888 81.0258 62.832 80.6898 62.832C80.2338 62.832 79.8298 62.936 79.4778 63.144C79.1338 63.344 78.8738 63.624 78.6978 63.984L78.1698 63.48C78.3058 63.2 78.5018 62.956 78.7578 62.748C79.0138 62.54 79.3138 62.38 79.6578 62.268C80.0018 62.148 80.3698 62.088 80.7618 62.088C81.2578 62.088 81.6938 62.18 82.0698 62.364C82.4458 62.54 82.7418 62.788 82.9578 63.108C83.1738 63.428 83.2818 63.804 83.2818 64.236C83.2818 64.556 83.2178 64.852 83.0898 65.124C82.9618 65.396 82.7778 65.624 82.5378 65.808C82.3058 65.992 82.0258 66.112 81.6978 66.168ZM90.6759 65.484C90.6759 66.188 90.5439 66.816 90.2799 67.368C90.0239 67.912 89.6679 68.34 89.2119 68.652C88.7559 68.964 88.2399 69.12 87.6639 69.12C87.0879 69.12 86.5719 68.964 86.1159 68.652C85.6679 68.34 85.3119 67.912 85.0479 67.368C84.7839 66.816 84.6519 66.188 84.6519 65.484C84.6519 64.78 84.7839 64.156 85.0479 63.612C85.3119 63.06 85.6679 62.628 86.1159 62.316C86.5719 61.996 87.0879 61.836 87.6639 61.836C88.2399 61.836 88.7559 61.996 89.2119 62.316C89.6679 62.628 90.0239 63.06 90.2799 63.612C90.5439 64.156 90.6759 64.78 90.6759 65.484ZM89.8479 65.484C89.8479 64.916 89.7559 64.416 89.5719 63.984C89.3879 63.552 89.1319 63.216 88.8039 62.976C88.4759 62.728 88.0959 62.604 87.6639 62.604C87.2319 62.604 86.8519 62.728 86.5239 62.976C86.1959 63.216 85.9359 63.552 85.7439 63.984C85.5599 64.416 85.4679 64.916 85.4679 65.484C85.4679 66.052 85.5599 66.552 85.7439 66.984C85.9359 67.416 86.1959 67.752 86.5239 67.992C86.8519 68.232 87.2319 68.352 87.6639 68.352C88.0959 68.352 88.4759 68.232 88.8039 67.992C89.1319 67.744 89.3879 67.408 89.5719 66.984C89.7559 66.552 89.8479 66.052 89.8479 65.484Z" fill="#F7FBFF"/>
<path d="M181.856 66.192C181.856 65.656 181.724 65.172 181.46 64.74C181.204 64.3 180.852 63.952 180.404 63.696C179.964 63.44 179.472 63.312 178.928 63.312C178.568 63.312 178.228 63.376 177.908 63.504C177.596 63.632 177.324 63.812 177.092 64.044C176.86 64.276 176.684 64.548 176.564 64.86C176.564 64.076 176.66 63.408 176.852 62.856C177.052 62.304 177.328 61.88 177.68 61.584C178.032 61.288 178.444 61.14 178.916 61.14C179.364 61.14 179.768 61.264 180.128 61.512C180.496 61.752 180.764 62.076 180.932 62.484L181.46 62.004C181.228 61.516 180.888 61.132 180.44 60.852C179.992 60.564 179.484 60.42 178.916 60.42C178.292 60.42 177.744 60.608 177.272 60.984C176.8 61.36 176.432 61.928 176.168 62.688C175.904 63.44 175.772 64.396 175.772 65.556C175.772 66.292 175.904 66.928 176.168 67.464C176.432 68 176.792 68.412 177.248 68.7C177.712 68.98 178.24 69.12 178.832 69.12C179.4 69.12 179.912 68.988 180.368 68.724C180.824 68.46 181.184 68.108 181.448 67.668C181.72 67.22 181.856 66.728 181.856 66.192ZM178.856 68.4C178.448 68.4 178.076 68.3 177.74 68.1C177.404 67.9 177.132 67.632 176.924 67.296C176.724 66.96 176.624 66.592 176.624 66.192C176.624 65.784 176.724 65.416 176.924 65.088C177.124 64.752 177.392 64.484 177.728 64.284C178.072 64.084 178.448 63.984 178.856 63.984C179.256 63.984 179.624 64.084 179.96 64.284C180.296 64.484 180.564 64.752 180.764 65.088C180.972 65.424 181.076 65.792 181.076 66.192C181.076 66.592 180.972 66.96 180.764 67.296C180.564 67.632 180.296 67.9 179.96 68.1C179.624 68.3 179.256 68.4 178.856 68.4ZM189.063 65.484C189.063 66.188 188.931 66.816 188.667 67.368C188.411 67.912 188.055 68.34 187.599 68.652C187.143 68.964 186.627 69.12 186.051 69.12C185.475 69.12 184.959 68.964 184.503 68.652C184.055 68.34 183.699 67.912 183.435 67.368C183.171 66.816 183.039 66.188 183.039 65.484C183.039 64.78 183.171 64.156 183.435 63.612C183.699 63.06 184.055 62.628 184.503 62.316C184.959 61.996 185.475 61.836 186.051 61.836C186.627 61.836 187.143 61.996 187.599 62.316C188.055 62.628 188.411 63.06 188.667 63.612C188.931 64.156 189.063 64.78 189.063 65.484ZM188.235 65.484C188.235 64.916 188.143 64.416 187.959 63.984C187.775 63.552 187.519 63.216 187.191 62.976C186.863 62.728 186.483 62.604 186.051 62.604C185.619 62.604 185.239 62.728 184.911 62.976C184.583 63.216 184.323 63.552 184.131 63.984C183.947 64.416 183.855 64.916 183.855 65.484C183.855 66.052 183.947 66.552 184.131 66.984C184.323 67.416 184.583 67.752 184.911 67.992C185.239 68.232 185.619 68.352 186.051 68.352C186.483 68.352 186.863 68.232 187.191 67.992C187.519 67.744 187.775 67.408 187.959 66.984C188.143 66.552 188.235 66.052 188.235 65.484Z" fill="#F7FBFF"/>
<g opacity="0.452055">
<rect x="3.01733" width="3.67414" height="51" rx="1.83707" fill="#9BBCFF"/>
<rect x="22.6128" width="3.67413" height="51" rx="1.83707" fill="#9BBCFF"/>
<rect x="42.208" width="3.67413" height="51" rx="1.83706" fill="#9BBCFF"/>
<rect x="61.8035" width="3.67413" height="51" rx="1.83706" fill="#9BBCFF"/>
<rect x="81.3989" width="3.67412" height="51" rx="1.83706" fill="#9BBCFF"/>
<rect x="100.994" width="3.67415" height="51" rx="1.83707" fill="#9BBCFF"/>
<rect x="119.365" width="3.67413" height="51" rx="1.83707" fill="#9BBCFF"/>
<rect x="138.96" width="3.67413" height="51" rx="1.83707" fill="#9BBCFF"/>
<rect x="158.556" width="3.67418" height="51" rx="1.83709" fill="#9BBCFF"/>
<rect x="178.151" width="3.67413" height="51" rx="1.83707" fill="#9BBCFF"/>
</g>
<rect x="3.01733" y="35" width="3.67414" height="16" rx="1.83707" fill="#F7FBFF"/>
<rect x="22.6128" y="17" width="3.67413" height="34" rx="1.83707" fill="#F7FBFF"/>
<rect x="42.208" y="21" width="3.67413" height="30" rx="1.83706" fill="#F7FBFF"/>
<rect x="61.8035" y="10" width="3.67413" height="41" rx="1.83706" fill="#F7FBFF"/>
<rect x="81.3989" y="7" width="3.67412" height="44" rx="1.83706" fill="#F7FBFF"/>
<rect x="100.994" y="19" width="3.67415" height="32" rx="1.83707" fill="#F7FBFF"/>
<rect x="119.365" y="15" width="3.67413" height="36" rx="1.83707" fill="#F7FBFF"/>
<rect x="138.96" y="7" width="3.67413" height="44" rx="1.83707" fill="#F7FBFF"/>
<rect x="158.556" y="22" width="3.67418" height="29" rx="1.83709" fill="#F7FBFF"/>
<rect x="178.151" y="26" width="3.67413" height="25" rx="1.83707" fill="#F7FBFF"/>
</g>
<defs>
<clipPath id="clip0_0_696">
<rect width="191.055" height="70" fill="white" transform="translate(0.567871)"/>
</clipPath>
</defs>
</svg>
