<svg width="18" height="17" viewBox="0 0 18 17" fill="none" xmlns="http://www.w3.org/2000/svg">
<path d="M17.6392 6.3148L16.593 5.30312L17.46 4.465L17.4609 4.4638C17.8705 4.06377 17.8702 3.41917 17.46 3.01957L14.8256 0.472427C14.628 0.280082 14.3589 0.172266 14.0785 0.173044H14.0768C13.797 0.172528 13.5285 0.280336 13.3314 0.472427L12.4641 1.3107L11.4177 0.298785C11.0048 -0.0995949 10.3363 -0.0995949 9.92341 0.298785L9.22663 0.972598C8.81467 1.3719 8.81467 2.01832 9.22663 2.41762L11.7396 4.84757L5.38165 10.9962L2.86893 8.56616C2.45601 8.16778 1.78756 8.16778 1.37465 8.56616L0.677865 9.23998C0.265907 9.63928 0.265907 10.2857 0.677865 10.685L1.72402 11.6967L0.857015 12.5348C0.445056 12.9343 0.445056 13.5808 0.857015 13.9802L3.4914 16.5274C3.9042 16.926 4.57288 16.926 4.98568 16.5274L5.85253 15.6894L6.89853 16.701C7.31133 17.0997 7.98001 17.0997 8.39281 16.701L9.08959 16.0272C9.50155 15.6279 9.50155 14.9815 9.08959 14.5822L6.57702 12.1523L12.935 6.00353L15.4481 8.43363C15.8609 8.83228 16.5296 8.83228 16.9424 8.43363L17.6392 7.75982C18.0511 7.36052 18.0511 6.7141 17.6392 6.3148Z" fill="#3B76EF"/>
</svg>
